{"title":"Gravity 2013 CAM x264 AC3-MiLLENiUM","uid":9307681,"size":1398364337,"categoryP":"video","categoryS":"movies","magnet":"?xt=urn:btih:84637c2024bcd139cdf1aeb9707bfb1d0be02f6a&amp;dn=Gravity+2013+CAM+x264+AC3-MiLLENiUM&amp;tr=udp%3A%2F%2Ftracker.openbittorrent.com%3A80&amp;tr=udp%3A%2F%2Fopen.demonii.com%3A1337&amp;tr=udp%3A%2F%2Ftracker.coppersurfer.tk%3A6969&amp;tr=udp%3A%2F%2Fexodus.desync.com%3A6969","seeders":0,"leechers":0,"uploader":".BONE.","files":3,"time":1386344613,"description":" &lt;a href=&quot;http://www.imdb.com/title/tt1454468/&quot; rel=&quot;nofollow&quot; target=&quot;_NEW&quot;&gt;http://www.imdb.com/title/tt1454468/&lt;/a&gt;\n\nGeneral\nUnique ID : 244004285293901792980797899382066158523 (0xB7918415FEFD685492FFA466A95E9BBB)\nComplete name : Gravity.2013.CAM.x264.AC3-MiLLENiUM.mkv\nFormat : Matroska\nFormat version : Version 2\nFile size : 1.29 GiB\nDuration : 1h 23mn\nOverall bit rate mode : Variable\nOverall bit rate : 2 227 Kbps\nEncoded date : UTC 2013-12-06 12:34:33\nWriting application : mkvmerge v6.5.0 ('Isn't she lovely') built on Oct 20 2013 12:50:05\nWriting library : libebml v1.3.0 + libmatroska v1.4.1\n\nVideo\nID : 1\nFormat : AVC\nFormat/Info : Advanced Video Codec\nFormat profile : &lt;a class=&quot;__cf_email__&quot; href=&quot;/cdn-cgi/l/email-protection&quot; data-cfemail=&quot;93dbfaf4fbd3dfa7bda2&quot;&gt;[email&amp;#160;protected]&lt;/a&gt;&lt;script data-cfhash='f9e31' type=&quot;text/javascript&quot;&gt;\n/* &lt;![CDATA[ */!function(){try{var t=&quot;currentScript&quot;in document?document.currentScript:function(){for(var t=document.getElementsByTagName(&quot;script&quot;),e=t.length;e--;)if(t[e].getAttribute(&quot;data-cfhash&quot;))return t[e]}();if(t&amp;&amp;t.previousSibling){var e,r,n,i,c=t.previousSibling,a=c.getAttribute(&quot;data-cfemail&quot;);if(a){for(e=&quot;&quot;,r=parseInt(a.substr(0,2),16),n=2;a.length-n;n+=2)i=parseInt(a.substr(n,2),16)^r,e+=String.fromCharCode(i);e=document.createTextNode(e),c.parentNode.replaceChild(e,c)}t.parentNode.removeChild(t);}}catch(u){}}()/* ]]&gt; */&lt;/script&gt;\nFormat settings, CABAC : Yes\nFormat settings, ReFrames : 3 frames\nCodec ID : V_MPEG4/ISO/AVC\nDuration : 1h 23mn\nBit rate mode : Variable\nBit rate : 1 863 Kbps\nMaximum bit rate : 40.0 Mbps\nWidth : 712 pixels\nHeight : 304 pixels\nDisplay aspect ratio : 2.35:1\nFrame rate mode : Constant\nFrame rate : 29.970 fps\nColor space : YUV\nChroma subsampling : 4:2:0\nBit depth : 8 bits\nScan type : Progressive\nBits/(Pixel*Frame) : 0.287\nStream size : 1.08 GiB (84%)\nWriting library : x264 core 140 r2377\nLanguage : English\nDefault : Yes\nForced : No\nColor primaries : BT.709\nTransfer characteristics : BT.709\nMatrix coefficients : BT.709\n\nAudio\nID : 2\nFormat : AC-3\nFormat/Info : Audio Coding 3\nMode extension : CM (complete main)\nFormat settings, Endianness : Big\nCodec ID : A_AC3\nDuration : 1h 23mn\nBit rate mode : Constant\nBit rate : 320 Kbps\nChannel(s) : 2 channels\nChannel positions : Front: L R\nSampling rate : 48.0 KHz\nBit depth : 16 bits\nCompression mode : Lossy\nStream size : 190 MiB (14%)\nLanguage : English\nDefault : Yes\nForced : No","torrent":{"xt":"urn:btih:84637c2024bcd139cdf1aeb9707bfb1d0be02f6a","amp;dn":"Gravity+2013+CAM+x264+AC3-MiLLENiUM","amp;tr":["udp%3A%2F%2Ftracker.openbittorrent.com%3A80","udp%3A%2F%2Fopen.demonii.com%3A1337","udp%3A%2F%2Ftracker.coppersurfer.tk%3A6969","udp%3A%2F%2Fexodus.desync.com%3A6969"],"infoHash":"84637c2024bcd139cdf1aeb9707bfb1d0be02f6a","infoHashBuffer":{"type":"Buffer","data":[132,99,124,32,36,188,209,57,205,241,174,185,112,123,251,29,11,224,47,106]},"announce":[],"urlList":[]}}